<svg xmlns="http://www.w3.org/2000/svg" viewBox="0 0 32 32"><g id="wifi"><path d="M16,2a14,14,0,0,0,0,28,13.86,13.86,0,0,0,10.1-4.31,1,1,0,0,0-1.44-1.38,12,12,0,1,1,2.42-3.69,1,1,0,0,0,.53,1.31,1,1,0,0,0,1.31-.54A13.8,13.8,0,0,0,30,16,14,14,0,0,0,16,2Z"/><path d="M13,22a3,3,0,1,0,3-3A3,3,0,0,0,13,22Zm4,0a1,1,0,1,1-1-1A1,1,0,0,1,17,22Z"/><path d="M20.12,19.47a1,1,0,1,0,1.76-.94,6.66,6.66,0,0,0-11.76,0,1,1,0,0,0,1.76.94,4.67,4.67,0,0,1,8.24,0Z"/><path d="M23,17a1,1,0,0,0,.51-.14,1,1,0,0,0,.35-1.37A9.6,9.6,0,0,0,16,11a9.62,9.62,0,0,0-7.86,4.49,1,1,0,1,0,1.72,1A7.66,7.66,0,0,1,16,13a7.67,7.67,0,0,1,6.14,3.51A1,1,0,0,0,23,17Z"/><path d="M25,14a1,1,0,0,0,.53-.15,1,1,0,0,0,.32-1.38C25.71,12.25,22.37,7,16,7s-9.71,5.25-9.85,5.47a1,1,0,1,0,1.7,1.06A10.11,10.11,0,0,1,16,9a10.11,10.11,0,0,1,8.15,4.53A1,1,0,0,0,25,14Z"/></g></svg>