<?xml version="1.0" encoding="UTF-8"?>
<!DOCTYPE svg PUBLIC "-//W3C//DTD SVG 1.1//EN" "http://www.w3.org/Graphics/SVG/1.1/DTD/svg11.dtd">
<!-- Creator: CorelDRAW -->
<svg xmlns="http://www.w3.org/2000/svg" xml:space="preserve" width="6.82666in" height="6.82666in" style="shape-rendering:geometricPrecision; text-rendering:geometricPrecision; image-rendering:optimizeQuality; fill-rule:evenodd; clip-rule:evenodd"
viewBox="0 0 6.82666 6.82666"
 xmlns:xlink="http://www.w3.org/1999/xlink">
 <defs>
  <style type="text/css">
   <![CDATA[
    .fil4 {fill:none}
    .fil2 {fill:#5F5F5F}
    .fil1 {fill:#B8B8B8}
    .fil3 {fill:gainsboro}
    .fil0 {fill:#E4E5E5}
   ]]>
  </style>
 </defs>
 <g id="Layer_x0020_1">
  <metadata id="CorelCorpID_0Corel-Layer"/>
  <g id="_346954872">
   <path id="_346956432" class="fil0" d="M0.955732 2.08213l4.9152 0c0.0565512,0 0.102402,0.0458504 0.102402,0.102402l0 2.45761c0,0.0565512 -0.0458504,0.102402 -0.102402,0.102402l-4.9152 0c-0.0565512,0 -0.102402,-0.0458504 -0.102402,-0.102402l0 -2.45761c0,-0.0565512 0.0458504,-0.102402 0.102402,-0.102402z"/>
   <polygon id="_346956384" class="fil1" points="3.10378,4.13012 5.56138,4.13012 5.56138,4.33492 3.10378,4.33492 "/>
   <path id="_346957032" class="fil2" d="M4.93011 2.68255l0 0.319693 0.124409 0c0.0897717,0 0.149874,-0.00577165 0.180063,-0.0175827 0.0301811,-0.011815 0.0538071,-0.030189 0.0711299,-0.0553898 0.0170591,-0.0251929 0.0257244,-0.0543268 0.0257244,-0.0876614 0,-0.0409488 -0.0120748,-0.0748071 -0.0362244,-0.101579 -0.0238858,-0.0265039 -0.0545945,-0.0433071 -0.0913386,-0.0498701 -0.0272992,-0.00525197 -0.0818898,-0.00761024 -0.163787,-0.00761024l-0.109976 0zm-0.227559 0.936508l0 -1.12733 0.365098 0c0.138323,0 0.22861,0.00577165 0.27061,0.0170591 0.0645669,0.0168031 0.118902,0.0535472 0.162472,0.110244 0.0435748,0.0566929 0.0653543,0.129921 0.0653543,0.219425 0,0.0692913 -0.0125945,0.127563 -0.0377953,0.174543 -0.0252008,0.0472441 -0.0569567,0.0842559 -0.0958071,0.111287 -0.0385787,0.0267756 -0.0779528,0.044622 -0.117846,0.0532835 -0.0543307,0.0107638 -0.133075,0.0162756 -0.236228,0.0162756l-0.148299 0 0 0.425209 -0.227559 0z"/>
   <polygon id="_346956768" class="fil2" points="4.25791,3.61906 4.25791,2.49173 4.48548,2.49173 4.48548,3.61906 "/>
   <polygon id="_346956600" class="fil2" points="3.50198,3.61906 3.09908,2.49173 3.34607,2.49173 3.63112,3.32614 3.90724,2.49173 4.14872,2.49173 3.74503,3.61906 "/>
   <polygon id="_346955736" class="fil1" points="3.10378,3.72054 5.56138,3.72054 5.56138,3.92534 3.10378,3.92534 "/>
   <path id="_346956264" class="fil3" d="M1.36298 2.49173l1.4336 0c0.0565512,0 0.102402,0.0458504 0.102402,0.102402l0 1.6384c0,0.0565512 -0.0458504,0.102402 -0.102402,0.102402l-1.4336 0c-0.0565512,0 -0.102402,-0.0458504 -0.102402,-0.102402l0 -1.6384c0,-0.0565512 0.0458504,-0.102402 0.102402,-0.102402z"/>
   <g>
    <path id="_346956240" class="fil1" d="M2.60293 3.3294c-0.0685827,0.0492362 -0.164937,0.114677 -0.208398,0.114677 -0.00857874,0 -0.0113661,-0.00257874 -0.0133386,-0.00503937 -0.0177795,-0.0218622 -0.0129331,-0.0985315 0.0142953,-0.227783 0.00264961,-0.0127953 -0.0040748,-0.0256772 -0.0160748,-0.0307874 -0.0120433,-0.00503543 -0.025937,-0.000889764 -0.0332205,0.00995669 -0.0937756,0.139728 -0.136681,0.169087 -0.156154,0.169087 -0.0275827,0 -0.0556299,-0.0794094 -0.0834882,-0.236031 -0.00224803,-0.0124646 -0.0127441,-0.0215984 -0.0252598,-0.0222835l0 -0.000185039c-0.000279528,0 -0.000559055,6.69291e-005 -0.000822835,6.69291e-005 -0.000204724,0 -0.000535433,-6.69291e-005 -0.000748031,-6.69291e-005l0 0.000185039c-0.0125354,0.000685039 -0.0230118,0.0098189 -0.0252598,0.0222835 -0.0279291,0.156618 -0.0559803,0.236031 -0.0835591,0.236031 -0.0194764,0 -0.062374,-0.0293583 -0.156079,-0.169087 -0.00722047,-0.0108465 -0.0211811,-0.0149921 -0.033248,-0.00995669 -0.0120433,0.00511024 -0.0187913,0.0179921 -0.0160709,0.0307874 0.027248,0.129252 0.0320787,0.205921 0.014311,0.227783 -0.00198425,0.00246063 -0.00477953,0.00503937 -0.0133504,0.00503937 -0.0434449,0 -0.139799,-0.0654409 -0.208453,-0.114677 -0.0108268,-0.00775984 -0.0257323,-0.0064685 -0.0351457,0.00292913 -0.0093937,0.00939764 -0.010685,0.0243189 -0.00285433,0.0351457 0.156898,0.200744 0.127417,0.431126 0.127417,0.431126 -0.000610236,0.00320866 -0.000889764,0.0063937 -0.000889764,0.00988583 0,0.0565866 0.0792008,0.0789882 0.148252,0.0922008 0.0760591,0.0145787 0.176236,0.0226811 0.28261,0.0229449 0.00102756,0 0.00203937,0 0.00306693,0 0.00101575,0 0.00204331,0 0.0031378,0 0.106362,-0.00026378 0.206535,-0.00836614 0.282594,-0.0229449 0.0690551,-0.0132126 0.148256,-0.035685 0.148256,-0.0922008 0,-0.00349213 -0.00026378,-0.00667717 -0.000874016,-0.00988583 0,0 -0.0294961,-0.230433 0.127402,-0.431126 0.00777953,-0.0108268 0.00653937,-0.025748 -0.00285433,-0.0351457 -0.0094685,-0.00939764 -0.0243071,-0.010689 -0.0352008,-0.00292913zm-0.519323 0.516134l-0.000275591 0c-0.000956693,0 -0.00190157,6.69291e-005 -0.0028622,6.69291e-005 -0.000956693,0 -0.00184646,-6.69291e-005 -0.00285433,-6.69291e-005l-0.000212598 0c-0.169087,-0.000488189 -0.280902,-0.0201732 -0.330276,-0.0370472 0.049374,-0.0169646 0.161189,-0.0366457 0.330276,-0.0371181l0.0061378 0c0.169154,0.000472441 0.280902,0.0201535 0.330276,0.0371181 -0.0493031,0.016874 -0.161122,0.0365591 -0.330209,0.0370472z"/>
    <path id="_346956120" class="fil1" d="M2.163 2.98551c0,0.0455551 -0.0369764,0.0824646 -0.0825315,0.0824646 -0.0454961,-7.87402e-006 -0.0824764,-0.0369094 -0.0824764,-0.0824646 0,-0.0455709 0.0369803,-0.0824764 0.0824764,-0.0824764 0.0455551,0 0.0825315,0.0369094 0.0825315,0.0824764z"/>
    <path id="_346956144" class="fil1" d="M1.80105 3.08514c0,0.0379882 -0.0307717,0.0687795 -0.0687047,0.0687795 -0.037937,0 -0.0687047,-0.0307913 -0.0687047,-0.0687795 0,-0.0379331 0.0307677,-0.0687165 0.0687047,-0.0687165 0.0379331,0 0.0687047,0.0307835 0.0687047,0.0687165z"/>
    <path id="_346955904" class="fil1" d="M2.49165 3.08514c0,0.0379882 -0.0307165,0.0687795 -0.0687165,0.0687795 -0.0379213,0 -0.0687047,-0.0307913 -0.0687047,-0.0687795 0,-0.0379331 0.0307835,-0.0687165 0.0687047,-0.0687165 0.038,0 0.0687165,0.0307835 0.0687165,0.0687165z"/>
    <path id="_346955712" class="fil1" d="M1.51347 3.28098c0,0.0256142 -0.0207638,0.0463031 -0.046374,0.0463031 -0.0255394,0 -0.0463031,-0.020689 -0.0463031,-0.0463031 0,-0.0256063 0.0207638,-0.0462992 0.0463031,-0.0462992 0.0256102,0 0.046374,0.0206929 0.046374,0.0462992z"/>
    <path id="_346956168" class="fil1" d="M2.73878 3.28098c0,0.0256142 -0.0207795,0.0463031 -0.0463898,0.0463031 -0.0255236,0 -0.0463031,-0.020689 -0.0463031,-0.0463031 0,-0.0256063 0.0207795,-0.0462992 0.0463031,-0.0462992 0.0256102,0 0.0463898,0.0206929 0.0463898,0.0462992z"/>
   </g>
  </g>
  <rect class="fil4" width="6.82666" height="6.82666"/>
 </g>
</svg>
