<svg xmlns="http://www.w3.org/2000/svg" viewBox="0 0 32 32"><g id="room_service" data-name="room service"><path d="M29.84,28.46l-2.6-4A1,1,0,0,0,26.4,24H17V21H28a1,1,0,0,0,1-1V19a13,13,0,0,0-4.33-9.69,1,1,0,1,0-1.34,1.49A11,11,0,0,1,27,19H5A11,11,0,0,1,16,8a10.88,10.88,0,0,1,4.4.92,1,1,0,1,0,.8-1.84,13,13,0,0,0-4.2-1V5h1a1,1,0,0,0,0-2H14a1,1,0,0,0,0,2h1v1A13,13,0,0,0,3,19v1a1,1,0,0,0,1,1H15v3H5.6a1,1,0,0,0-.84.46l-2.6,4A1,1,0,0,0,3,30H7a1,1,0,0,0,0-2H4.84l1.3-2H25.86l1.3,2H11a1,1,0,0,0,0,2H29a1,1,0,0,0,.84-1.54Z"/></g></svg>