<?xml version="1.0" encoding="UTF-8"?>
<!DOCTYPE svg PUBLIC "-//W3C//DTD SVG 1.1//EN" "http://www.w3.org/Graphics/SVG/1.1/DTD/svg11.dtd">
<!-- Creator: CorelDRAW -->
<svg xmlns="http://www.w3.org/2000/svg" xml:space="preserve" width="6.82666in" height="6.82666in" style="shape-rendering:geometricPrecision; text-rendering:geometricPrecision; image-rendering:optimizeQuality; fill-rule:evenodd; clip-rule:evenodd"
viewBox="0 0 6.82666 6.82666"
 xmlns:xlink="http://www.w3.org/1999/xlink">
 <defs>
  <style type="text/css">
   <![CDATA[
    .fil4 {fill:none}
    .fil3 {fill:#838383}
    .fil1 {fill:#8C8D8D;fill-rule:nonzero}
    .fil2 {fill:#A0A0A0;fill-rule:nonzero}
    .fil0 {fill:#BEBEBE;fill-rule:nonzero}
   ]]>
  </style>
 </defs>
 <g id="Layer_x0020_1">
  <metadata id="CorelCorpID_0Corel-Layer"/>
  <g id="_346950744">
   <path id="_346950384" class="fil0" d="M4.04521 4.53552c-0.158677,0.0174567 -0.247122,0.0763701 -0.327819,0.405055l-9.84252e-005 -2.3622e-005 -1.9685e-005 5.90551e-005 -0.000240157 -5.90551e-005 -0.000255906 0.00109449c-0.00405512,0.00606693 -0.0290827,0.0157283 -0.0602717,0.0277677 -0.117346,0.0452913 -0.273354,0.105516 -0.368409,0.392118 -0.00520866,0.0157087 -0.0444055,0.0313976 -0.0927717,0.050752 -0.118791,0.0475236 -0.26889,0.107587 -0.376579,0.32578 -0.0155748,0.0315591 -0.0369606,0.047685 -0.0550433,0.0613189 -0.0285512,0.0215236 -0.0534921,0.0403346 -0.0754291,0.0806142 -0.0280748,0.0515472 -0.00904724,0.116094 0.0425,0.144169 0.0515472,0.0280748 0.116094,0.00904724 0.144169,-0.0425 0.000551181,-0.00101181 0.00767323,-0.00518504 0.0170906,-0.0122835 0.0363898,-0.0274331 0.0794055,-0.0598661 0.117547,-0.137154 0.0716142,-0.145102 0.179516,-0.18828 0.264909,-0.222441 0.0987598,-0.0395157 0.17878,-0.0715354 0.215276,-0.181587 0.0633268,-0.190945 0.166102,-0.230622 0.243409,-0.260457 0.0886339,-0.0342165 0.159146,-0.0614449 0.188492,-0.167583 0.000964567,-0.00286614 0.00182283,-0.0057874 0.00255512,-0.00877559l-0.103594 -0.0254173 0.103335 0.025c0.0591024,-0.240909 0.116268,-0.243941 0.236626,-0.250299 0.0345039,-0.00182283 0.0724173,-0.00383071 0.114862,-0.00834646l-0.23024 -0.196803zm-1.79415 -1.53321c-0.17022,0.0152283 -0.26228,0.0659055 -0.34602,0.407244 -0.00134646,0.0055 -0.0275866,0.0156299 -0.0607913,0.0284449 -0.11735,0.0452992 -0.273354,0.10552 -0.368406,0.392118 -0.00520866,0.0157087 -0.0444016,0.0313976 -0.0927756,0.050748 -0.118795,0.0475315 -0.26889,0.107587 -0.376579,0.325783 -0.0155748,0.031563 -0.0369606,0.047689 -0.0550433,0.0613228 -0.0285433,0.0215157 -0.0534882,0.0403228 -0.0754291,0.0806102 -0.0280748,0.0515472 -0.00904724,0.116094 0.0425,0.144169 0.0515472,0.0280748 0.116094,0.00904724 0.144169,-0.0425 0.000555118,-0.00101969 0.00767323,-0.0051811 0.0170906,-0.0122795 0.0363858,-0.027437 0.0794055,-0.0598622 0.117547,-0.137157 0.0716142,-0.145106 0.179516,-0.18828 0.264909,-0.222445 0.0987559,-0.0395118 0.17878,-0.0715315 0.21528,-0.181583 0.0633268,-0.190945 0.166102,-0.230618 0.243406,-0.260457 0.0909764,-0.0351142 0.162843,-0.0628543 0.190791,-0.176776 0.0591024,-0.240909 0.116268,-0.243941 0.236626,-0.250299 0.0393701,-0.00207874 0.0831732,-0.00439764 0.133087,-0.0104094l-0.218217 -0.186524 -0.000181102 0.000212598 -0.0119646 -0.0102244zm0.305646 0.260886c-0.178224,0.0139961 -0.272705,0.0587283 -0.358465,0.408291 -0.00134646,0.00549606 -0.0275827,0.0156299 -0.0607874,0.0284449 -0.11735,0.0452992 -0.273354,0.105516 -0.368409,0.392118 -0.00520866,0.0157087 -0.0444055,0.0313976 -0.0927717,0.050752 -0.118795,0.0475276 -0.268898,0.107591 -0.376583,0.325783 -0.0155748,0.0315591 -0.0369567,0.047685 -0.0550394,0.0613189 -0.0285512,0.0215236 -0.0534961,0.0403307 -0.0754331,0.0806142 -0.0280748,0.0515472 -0.00904724,0.116094 0.0425,0.144169 0.0515472,0.0280748 0.116094,0.00904724 0.144169,-0.0425 0.000555118,-0.00101969 0.00767323,-0.0051811 0.0170945,-0.0122835 0.0363898,-0.0274331 0.0794016,-0.0598701 0.117543,-0.137154 0.0716142,-0.145102 0.179516,-0.18828 0.264913,-0.222445 0.0987598,-0.0395157 0.178783,-0.0715354 0.215276,-0.181587 0.0633268,-0.190945 0.166106,-0.230618 0.243409,-0.260457 0.0909724,-0.0351142 0.162839,-0.0628504 0.190787,-0.176776 0.0591024,-0.240913 0.116268,-0.243941 0.236626,-0.250299 0.0423819,-0.00223622 0.0898976,-0.00474803 0.144638,-0.0118504l-0.229469 -0.196142zm0.305386 0.261031c-0.186146,0.0130394 -0.282957,0.0517441 -0.37065,0.409193 -0.00134646,0.00549606 -0.0275827,0.0156299 -0.0607874,0.0284449 -0.11735,0.0452992 -0.273354,0.105516 -0.368409,0.392118 -0.00520866,0.0157087 -0.0444055,0.0313976 -0.0927717,0.050752 -0.118795,0.0475315 -0.268894,0.107594 -0.376583,0.325783 -0.0155748,0.031563 -0.0369606,0.047689 -0.0550433,0.0613228 -0.0285433,0.0215157 -0.0534882,0.0403228 -0.0754291,0.0806102 -0.0280748,0.0515472 -0.00904724,0.116094 0.0425,0.144169 0.0515472,0.0280748 0.116094,0.00904724 0.144169,-0.0425 0.000555118,-0.00101969 0.00767323,-0.0051811 0.0170906,-0.0122795 0.0363858,-0.027437 0.0794055,-0.0598622 0.117547,-0.137157 0.0716181,-0.145102 0.179516,-0.18828 0.264913,-0.222445 0.0987598,-0.0395157 0.178783,-0.0715354 0.215276,-0.181587 0.0633268,-0.190945 0.166106,-0.230618 0.243409,-0.260457 0.0909724,-0.0351142 0.162839,-0.0628504 0.190787,-0.176776 0.0591024,-0.240906 0.116268,-0.243937 0.236622,-0.250295 0.0453071,-0.0023937 0.0964803,-0.0051063 0.156079,-0.0133937l-0.22872 -0.195504zm0.30574 0.261339c-0.194622,0.0122913 -0.293862,0.0444331 -0.383563,0.410055 -0.00134646,0.00549606 -0.0275827,0.015626 -0.0607913,0.0284449 -0.11735,0.0452992 -0.273354,0.10552 -0.368406,0.392118 -0.00520866,0.0157087 -0.0444055,0.0313976 -0.0927756,0.050752 -0.118787,0.0475236 -0.26889,0.107587 -0.376579,0.32578 -0.0155748,0.031563 -0.0369606,0.047689 -0.0550433,0.0613228 -0.0285433,0.0215157 -0.0534882,0.0403228 -0.0754291,0.0806102 -0.0280748,0.0515472 -0.00904724,0.116094 0.0425,0.144169 0.0515472,0.0280748 0.116094,0.00904724 0.144169,-0.0425 0.000555118,-0.00101969 0.00767323,-0.0051811 0.0170906,-0.0122795 0.0363858,-0.027437 0.0794055,-0.0598622 0.117547,-0.137157 0.0716142,-0.145102 0.17952,-0.18828 0.264909,-0.222441 0.0987638,-0.0395157 0.178783,-0.0715354 0.21528,-0.181587 0.0633268,-0.190945 0.166102,-0.230618 0.243406,-0.260457 0.0909764,-0.0351142 0.162843,-0.0628543 0.190791,-0.176776 0.0591024,-0.240909 0.116268,-0.243941 0.236626,-0.250299 0.0482913,-0.00255118 0.103252,-0.00546457 0.167984,-0.0151102l-0.227717 -0.194646zm0.305827 0.261409c-0.203244,0.0118228 -0.30489,0.0371693 -0.396563,0.410843 -0.00134646,0.00549606 -0.0275827,0.015626 -0.0607913,0.0284449 -0.11735,0.0452992 -0.273354,0.10552 -0.368406,0.392118 -0.00520866,0.0157087 -0.0444016,0.0313976 -0.0927756,0.050748 -0.118787,0.0475276 -0.26889,0.107591 -0.376579,0.325787 -0.0155748,0.031563 -0.0369606,0.047689 -0.0550433,0.0613228 -0.0285433,0.0215157 -0.0534882,0.0403228 -0.0754291,0.0806102 -0.0280748,0.0515472 -0.00904724,0.116094 0.0425,0.144169 0.0515472,0.0280748 0.116094,0.00904724 0.144169,-0.0425 0.000555118,-0.00101969 0.00767323,-0.0051811 0.0170906,-0.0122795 0.0363858,-0.027437 0.0794055,-0.0598622 0.117547,-0.137157 0.0716142,-0.145106 0.179516,-0.188283 0.264909,-0.222449 0.0987559,-0.0395118 0.17878,-0.0715315 0.21528,-0.181583 0.0633268,-0.190945 0.166102,-0.230618 0.243406,-0.260457 0.0909764,-0.0351142 0.162843,-0.0628543 0.190791,-0.176776 0.0591024,-0.240909 0.116268,-0.243941 0.236626,-0.250299 0.0512047,-0.00270079 0.109898,-0.00580709 0.179783,-0.0169213l-0.226516 -0.193622zm0.266713 0.22798c-0.151469,0.0191654 -0.237543,0.0831693 -0.316276,0.404079 -0.00134646,0.00549606 -0.0275827,0.0156299 -0.0607874,0.0284449 -0.11735,0.0452992 -0.273354,0.105516 -0.368409,0.392118 -0.00520866,0.0157087 -0.0444055,0.0313976 -0.0927717,0.050752 -0.118795,0.0475315 -0.268894,0.107594 -0.376579,0.325783 -0.0155748,0.0315591 -0.0369606,0.047685 -0.0550433,0.0613189 -0.0285512,0.0215236 -0.0534921,0.0403346 -0.0754291,0.0806142 -0.0280748,0.0515472 -0.00904724,0.116094 0.0425,0.144169 0.0515472,0.0280748 0.116094,0.00904724 0.144169,-0.0425 0.000551181,-0.00101181 0.00767323,-0.00518504 0.0170906,-0.0122835 0.0363898,-0.0274331 0.0794055,-0.0598661 0.117547,-0.137154 0.0716142,-0.145098 0.179512,-0.18828 0.264909,-0.222445 0.0987598,-0.0395157 0.178783,-0.0715354 0.215276,-0.181587 0.0633268,-0.190945 0.166106,-0.230618 0.243409,-0.260457 0.0909724,-0.0351142 0.162839,-0.0628543 0.190787,-0.176776 0.0591024,-0.240906 0.116264,-0.243937 0.236622,-0.250295 0.0312717,-0.00165354 0.0653425,-0.00345276 0.103043,-0.0071378l-0.230059 -0.196646z"/>
   <path id="_346950840" class="fil1" d="M2.94434 2.48693l1.81807 1.55403 0.000181102 -0.000212598c0.00230709,0.00197244 0.0045,0.00401969 0.00659843,0.00614173 0.0865866,0.0771299 0.135091,0.182142 0.143555,0.290232 0.00864173,0.11035 -0.0248228,0.22428 -0.102461,0.315142l0.000212598 0.000181102c-0.00169291,0.00198031 -0.00344882,0.00388189 -0.00524803,0.00570866l-0.207571 0.242843 0.000212598 0.000181102c-0.0382756,0.0447795 -0.10561,0.0500512 -0.15039,0.0117756 -0.00197638,-0.00168898 -0.00387402,-0.00344094 -0.00569685,-0.00524016l-2.31552 -1.97923 -0.000181102 0.000212598c-0.0447795,-0.0382756 -0.0500512,-0.10561 -0.0117756,-0.15039 0.00168898,-0.00197638 0.00343701,-0.00387008 0.00524016,-0.00569685l0.207575 -0.242843 -0.000212598 -0.000181102c0.00197244,-0.00230709 0.00401969,-0.0045 0.00614173,-0.00659843 0.0771299,-0.0865866 0.182142,-0.135091 0.290228,-0.143555 0.110354,-0.00864173 0.22428,0.0248228 0.315142,0.102461l0.000181102 -0.000212598c0.00198031,0.00169291 0.00388189,0.00344488 0.00570866,0.00524803z"/>
   <path id="_346950528" class="fil2" d="M5.93806 0.965079c0.0381969,-0.0446417 0.0329724,-0.111803 -0.0116693,-0.15 -0.0446417,-0.0381969 -0.111803,-0.0329724 -0.15,0.0116693l-1.98425 2.32139c-0.0381969,0.0446417 -0.0329724,0.111803 0.0116693,0.15 0.0446417,0.0381969 0.111803,0.0329724 0.15,-0.0116693l1.98425 -2.32139z"/>
   <path id="_346950624" class="fil3" d="M3.76955 3.1923l-0.825209 -0.705362c-0.00182677,-0.00180315 -0.00372835,-0.00355512 -0.00570866,-0.00524803l-0.000181102 0.000212598c-0.0908622,-0.0776378 -0.204787,-0.111102 -0.315142,-0.102461 -0.0565512,0.00442913 -0.112256,0.019815 -0.163571,0.0458858l2.41644 2.12307c0.0301535,-0.067122 0.0421575,-0.139941 0.0365709,-0.211264 -0.00846457,-0.108091 -0.0569685,-0.213102 -0.143555,-0.290232 -0.00209843,-0.00212205 -0.00429134,-0.00416929 -0.00659843,-0.00614173l-0.000181102 0.000212598 -0.848634 -0.725386c-0.0358228,0.0148346 -0.0784921,0.00949213 -0.109969,-0.0174409 -0.0314449,-0.0269055 -0.0433346,-0.068185 -0.0342638,-0.105843z"/>
  </g>
  <rect class="fil4" width="6.82666" height="6.82666"/>
 </g>
</svg>
