<svg xmlns="http://www.w3.org/2000/svg" viewBox="0 0 64 64"><title>Artboard-25</title><g id="CCTV"><rect width="7" height="64" rx="1" ry="1" style="fill:#1b1b1e"/><path d="M13,46V58a1.0029,1.0029,0,0,1-1,1H9V45h3A1.0029,1.0029,0,0,1,13,46Z" style="fill:#1b1b1e"/><path d="M63.9,15.56a1,1,0,0,0-.72-.66L22.63,5.03a.9888.9888,0,0,0-.75.12.96.96,0,0,0-.45.61l-1.45,5.93,32.04,7.8,7.61,1.85,4.08-4.82A.99.99,0,0,0,63.9,15.56ZM32.26,11.03a1.012,1.012,0,0,1-.97.76.9863.9863,0,0,1-.24-.03l-6.04-1.47a.9981.9981,0,1,1,.47-1.94l6.04,1.47A1.001,1.001,0,0,1,32.26,11.03Z" style="fill:#1b1b1e"/><path d="M50.57,21.2l-.81,3.34-1.68,6.9-1.29,5.28L36.34,34.18a6.13,6.13,0,0,0,.29-.75,7.9977,7.9977,0,1,0-15.49-3.85,5.8858,5.8858,0,0,0-.12.87L16.7,29.4a1.0025,1.0025,0,0,1-.73-1.21l3.54-14.55Z" style="fill:#1b1b1e"/><path d="M56.01,26.06l-1.68,6.9a1.0014,1.0014,0,0,1-.97.77.9863.9863,0,0,1-.24-.03l-3.34-.81.56-2.31,1.59-6.54h.01l3.34.81a1.0308,1.0308,0,0,1,.62.46A.9784.9784,0,0,1,56.01,26.06Z" style="fill:#1b1b1e"/><path d="M29,25a5.9264,5.9264,0,0,0-5.8955,4.9512A4.7615,4.7615,0,0,0,23,31a6.0009,6.0009,0,0,0,6,6,2.3431,2.3431,0,0,0,.2881-.0107,6.0456,6.0456,0,0,0,5.4355-4.16A6.1084,6.1084,0,0,0,35,31,6.0066,6.0066,0,0,0,29,25Z" style="fill:#1b1b1e"/><path d="M29.16,39,23.31,54.36a.9988.9988,0,0,1-.93.64H15V49h3.93l4.63-12.15A7.892,7.892,0,0,0,29,39Z" style="fill:#1b1b1e"/></g></svg>